<mxfile>
    <diagram id="zm5wL6IId0SvJkp5KeeG" name="Page-1">
        <mxGraphModel dx="679" dy="404" grid="1" gridSize="10" guides="1" tooltips="1" connect="1" arrows="1" fold="1" page="1" pageScale="1" pageWidth="850" pageHeight="1100" math="0" shadow="0">
            <root>
                <mxCell id="0"/>
                <mxCell id="1" parent="0"/>
                <mxCell id="2" value="&lt;div&gt;board:&amp;nbsp; &amp;nbsp; .string 9,9,9,9,32,32,32,27,&quot;[30;40;1mXXXXXXXXX&quot;,0xA,0xD&lt;/div&gt;&lt;div&gt;&amp;nbsp; &amp;nbsp; &amp;nbsp; &amp;nbsp; .string 9,9,9,9,32,32,32,27,&quot;[30;40;1mX&quot;,27,&quot;[30;40;1m &quot;,27,&quot;[35;40;1mO&quot;,27,&quot;[31;40;1mO&quot;,27,&quot;[30;40;1m &quot;,27,&quot;[30;40;1m &quot;,27,&quot;[30;40;1m &quot;,27,&quot;[30;40;1m &quot;,27,&quot;[30;40;1mX&quot;,0xA,0xD&lt;/div&gt;&lt;div&gt;&amp;nbsp; &amp;nbsp; &amp;nbsp; &amp;nbsp; .string 9,9,9,9,32,32,32,27,&quot;[30;40;1mX&quot;,27,&quot;[30;40;1m &quot;,27,&quot;[31;40;1m &quot;,27,&quot;[37;40;1mO&quot;,27,&quot;[34;40;1mO&quot;,27,&quot;[30;40;1m &quot;,27,&quot;[34;40;1mO&quot;,27,&quot;[30;40;1m &quot;,27,&quot;[30;40;1mX&quot;,0xA,0xD&lt;/div&gt;&lt;div&gt;&amp;nbsp; &amp;nbsp; &amp;nbsp; &amp;nbsp; .string 9,9,9,9,32,32,32,27,&quot;[30;40;1mX&quot;,27,&quot;[30;40;1m &quot;,27,&quot;[30;40;1m &quot;,27,&quot;[32;40;1mO&quot;,27,&quot;[30;40;1m &quot;,27,&quot;[30;40;1m &quot;,27,&quot;[30;40;1m &quot;,27,&quot;[30;40;1m &quot;,27,&quot;[30;40;1mX&quot;,0xA,0xD&lt;/div&gt;&lt;div&gt;&amp;nbsp; &amp;nbsp; &amp;nbsp; &amp;nbsp; .string 9,9,9,9,32,32,32,27,&quot;[30;40;1mX&quot;,27,&quot;[30;40;1m &quot;,27,&quot;[30;40;1m &quot;,27,&quot;[36;40;1mO&quot;,27,&quot;[33;40;1mO&quot;,27,&quot;[30;40;1m &quot;,27,&quot;[32;40;1mO&quot;,27,&quot;[30;40;1m &quot;,27,&quot;[30;40;1mX&quot;,0xA,0xD&lt;/div&gt;&lt;div&gt;&amp;nbsp; &amp;nbsp; &amp;nbsp; &amp;nbsp; .string 9,9,9,9,32,32,32,27,&quot;[30;40;1mX&quot;,27,&quot;[30;40;1m &quot;,27,&quot;[30;40;1m &quot;,27,&quot;[30;40;1m &quot;,27,&quot;[30;40;1m &quot;,27,&quot;[33;40;1mO&quot;,27,&quot;[36;40;1mO&quot;,27,&quot;[30;40;1m &quot;,27,&quot;[30;40;1mX&quot;,0xA,0xD&lt;/div&gt;&lt;div&gt;&amp;nbsp; &amp;nbsp; &amp;nbsp; &amp;nbsp; .string 9,9,9,9,32,32,32,27,&quot;[30;40;1mX&quot;,27,&quot;[30;40;1m &quot;,27,&quot;[30;40;1m &quot;,27,&quot;[37;40;1mO&quot;,27,&quot;[30;40;1m &quot;,27,&quot;[30;40;1m &quot;,27,&quot;[30;40;1m &quot;,27,&quot;[30;40;1m &quot;,27,&quot;[30;40;1mX&quot;,0xA,0xD&lt;/div&gt;&lt;div&gt;&amp;nbsp; &amp;nbsp; &amp;nbsp; &amp;nbsp; .string 9,9,9,9,32,32,32,27,&quot;[30;40;1mX&quot;,27,&quot;[30;40;1m &quot;,27,&quot;[30;40;1m &quot;,27,&quot;[35;40;1mO&quot;,27,&quot;[31;40;1mO&quot;,27,&quot;[30;40;1m &quot;,27,&quot;[30;40;1m &quot;,27,&quot;[30;40;1m &quot;,27,&quot;[30;40;1mX&quot;,0xA,0xD&lt;/div&gt;&lt;div&gt;&amp;nbsp; &amp;nbsp; &amp;nbsp; &amp;nbsp; .string 9,9,9,9,32,32,32,27,&quot;[30;40;1mXXXXXXXXX&quot;,0&lt;/div&gt;" style="text;html=1;strokeColor=none;fillColor=none;align=left;verticalAlign=middle;whiteSpace=wrap;rounded=0;" vertex="1" parent="1">
                    <mxGeometry x="120" y="170" width="1030" height="140" as="geometry"/>
                </mxCell>
            </root>
        </mxGraphModel>
    </diagram>
</mxfile>